<?xml version="1.0" encoding="utf-8"?>
<!-- Generator: Adobe Illustrator 16.0.3, SVG Export Plug-In . SVG Version: 6.00 Build 0)  -->
<!DOCTYPE svg PUBLIC "-//W3C//DTD SVG 1.1//EN" "http://www.w3.org/Graphics/SVG/1.1/DTD/svg11.dtd">
<svg version="1.1" id="レイヤー_2" xmlns="http://www.w3.org/2000/svg" xmlns:xlink="http://www.w3.org/1999/xlink" x="0px"
	 y="0px" width="296px" height="71px" viewBox="9.3781738 562.1601563 296 71"
	 style="enable-background:new 9.3781738 562.1601563 296 71;" xml:space="preserve">
<g>
	<rect x="16.2531738" y="568.9511719" style="fill:#FFFFFF;" width="264.6987305" height="57.8339844"/>
	<g>
		<rect x="16.2531738" y="568.9511719" style="fill:none;" width="264.6987305" height="57.8339844"/>
		<g>
			<g>
				<g>
					<path style="fill:#FFFFFF;" d="M65.5603027,602.0888672c-0.0288086,0.0498047-0.0805664,0.0654297-0.1333008,0.0625
						c-0.0698242-0.0048828-17.769043-1.0537109-17.769043-1.0537109s-17.7001953,1.0488281-17.7700195,1.0537109
						c-0.0517578,0.0029297-0.1035156-0.0126953-0.1333008-0.0625c0.0629883,0.1982422,0.1298828,0.3964844,0.2006836,0.5927734
						c-0.0175781-0.0976563,0.0458984-0.1523438,0.171875-0.1523438h35.0595703
						c0.1274414,0,0.1904297,0.0546875,0.1733398,0.1513672C65.4304199,602.4853516,65.4973145,602.2871094,65.5603027,602.0888672z
						"/>
					<path style="fill:#FFFFFF;" d="M66.0500488,597.6865234c-0.6523438,0.0488281-12.6435547-0.5517578-18.3925781-0.5439453
						c-5.7456055-0.0078125-17.7397461,0.5927734-18.3925781,0.5439453
						c-0.0786133-0.0048828-0.1401367-0.0400391-0.1542969-0.0917969c-0.0019531,0.0908203-0.0029297,0.1816406-0.0029297,0.2734375
						c0,0.0908203,0.0009766,0.1826172,0.0029297,0.2724609c0.0141602-0.0517578,0.0756836-0.0849609,0.1542969-0.0917969
						c0.652832-0.0488281,12.6469727,0.5517578,18.3925781,0.5429688C53.4064941,598.6005859,65.3977051,598,66.0500488,598.0488281
						c0.0786133,0.0068359,0.1401367,0.0400391,0.1542969,0.0917969c0.0014648-0.0898438,0.0029297-0.1816406,0.0029297-0.2724609
						c0-0.0917969-0.0014648-0.1826172-0.0029297-0.2734375C66.1901855,597.6464844,66.1286621,597.6816406,66.0500488,597.6865234z
						"/>
					<path style="fill:#FFFFFF;" d="M65.8781738,599.8935547c-0.5400391-0.0214844-12.3505859-0.859375-18.2202148-0.8330078
						c-5.8691406-0.0263672-17.6787109,0.8115234-18.2216797,0.8330078
						c-0.0947266,0.0029297-0.1704102-0.0292969-0.1992188-0.1181641c0.027832,0.2011719,0.0605469,0.4033203,0.0966797,0.6044922
						c0.0029297-0.0849609,0.0756836-0.1259766,0.1777344-0.1240234c0.1386719,0.0019531,14.2670898,0.3916016,18.1464844,0.3916016
						c3.8769531,0,18.0073242-0.390625,18.1459961-0.3916016c0.1020508-0.0019531,0.1748047,0.0390625,0.1777344,0.1230469
						c0.0356445-0.2011719,0.0683594-0.4023438,0.0957031-0.6035156
						C66.0495605,599.8642578,65.973877,599.8964844,65.8781738,599.8935547z"/>
					<path style="fill:#FFFFFF;" d="M29.755127,593.6474609c0.0292969-0.0498047,0.0805664-0.0654297,0.1328125-0.0625
						c0.0703125,0.0039063,17.7700195,1.0537109,17.7700195,1.0537109s17.6992188-1.0498047,17.769043-1.0537109
						c0.0527344-0.0029297,0.1035156,0.0117188,0.1333008,0.0615234c-0.0629883-0.1982422-0.1298828-0.3964844-0.2001953-0.5927734
						c0.0166016,0.0986328-0.0458984,0.1533203-0.1733398,0.1533203H30.1271973
						c-0.1254883,0-0.1889648-0.0556641-0.171875-0.1542969C29.8845215,593.25,29.817627,593.4482422,29.755127,593.6474609z"/>
					<path style="fill:#FFFFFF;" d="M29.4362793,595.8417969c0.5424805,0.0214844,12.3525391,0.8583984,18.2211914,0.8349609
						c5.8701172,0.0244141,17.6806641-0.8134766,18.2207031-0.8349609c0.0952148-0.0039063,0.1713867,0.0292969,0.1992188,0.1181641
						c-0.0273438-0.2011719-0.0605469-0.4023438-0.0961914-0.6035156c-0.0029297,0.0839844-0.0756836,0.1240234-0.1772461,0.1230469
						c-0.1391602-0.0019531-14.269043-0.3916016-18.1464844-0.3916016c-3.8793945,0-18.0078125,0.3896484-18.1464844,0.3916016
						c-0.1015625,0.0009766-0.1743164-0.0390625-0.1772461-0.1230469c-0.0361328,0.1992188-0.0688477,0.4023438-0.0966797,0.6035156
						C29.2658691,595.8710938,29.3415527,595.8378906,29.4362793,595.8417969z"/>
				</g>
				
					<radialGradient id="SVGID_1_" cx="-126.6174316" cy="-202.7280273" r="21.8622131" gradientTransform="matrix(1 0 0 -0.9259 174.2749023 406.0460815)" gradientUnits="userSpaceOnUse">
					<stop  offset="0" style="stop-color:#9BC4F0"/>
					<stop  offset="0.5933" style="stop-color:#0075D2"/>
					<stop  offset="1" style="stop-color:#014880"/>
				</radialGradient>
				<path style="fill:url(#SVGID_1_);" d="M30.1271973,593.2070313h35.0595703c0.1445313,0,0.206543-0.0712891,0.1611328-0.1962891
					c-2.3725586-6.4882813-9.3945313-11.2099609-17.6899414-11.2099609s-15.3188477,4.7216797-17.6899414,11.2099609
					C29.9211426,593.1347656,29.9841309,593.2070313,30.1271973,593.2070313z M29.2648926,597.6865234
					c0.652832,0.0488281,12.6474609-0.5517578,18.3930664-0.5439453c5.7485352-0.0078125,17.7397461,0.5927734,18.3925781,0.5439453
					c0.090332-0.0068359,0.1582031-0.0527344,0.1572266-0.1191406c-0.0097656-0.4892578-0.0488281-1.0283203-0.1201172-1.5634766
					c-0.0166016-0.1220703-0.1000977-0.1660156-0.2094727-0.1621094
					c-0.5400391,0.0214844-12.3505859,0.8583984-18.2202148,0.8349609
					c-5.8691406,0.0244141-17.6787109-0.8134766-18.2216797-0.8349609
					c-0.1083984-0.0039063-0.1923828,0.0400391-0.2084961,0.1621094c-0.0712891,0.5351563-0.1108398,1.0742188-0.1206055,1.5634766
					C29.1062012,597.6337891,29.1740723,597.6796875,29.2648926,597.6865234z M29.5114746,595.4794922
					c0.1386719-0.0019531,14.2670898-0.3916016,18.1464844-0.3916016c3.8769531,0,18.0073242,0.3896484,18.1459961,0.3916016
					c0.1162109,0.0019531,0.1948242-0.0517578,0.1748047-0.1621094c-0.0981445-0.53125-0.2329102-1.0898438-0.4047852-1.6396484
					c-0.0239258-0.0761719-0.0849609-0.0966797-0.1469727-0.0927734c-0.0698242,0.0039063-17.769043,1.0537109-17.769043,1.0537109
					s-17.7001953-1.0498047-17.7700195-1.0537109c-0.0610352-0.0039063-0.1230469,0.0166016-0.1464844,0.0927734
					c-0.1723633,0.5507813-0.3071289,1.1083984-0.4047852,1.6396484
					C29.3156738,595.4277344,29.3947754,595.4814453,29.5114746,595.4794922z M29.9680176,602.7255859
					c2.3710938,6.4863281,9.3945313,11.2089844,17.6899414,11.2089844s15.3173828-4.7216797,17.6899414-11.2089844
					c0.0454102-0.1259766-0.0166016-0.1962891-0.1611328-0.1962891H30.1271973
					C29.9841309,602.5292969,29.9211426,602.5996094,29.9680176,602.7255859z M29.1071777,598.1679688
					c0.0097656,0.4892578,0.0498047,1.0292969,0.1206055,1.5644531c0.0161133,0.1210938,0.1000977,0.1650391,0.2084961,0.1611328
					c0.5429688-0.0205078,12.3530273-0.859375,18.2216797-0.8330078c5.8696289-0.0263672,17.6801758,0.8115234,18.2202148,0.8330078
					c0.109375,0.0039063,0.1928711-0.0400391,0.2094727-0.1611328c0.0717773-0.5361328,0.1103516-1.0751953,0.1201172-1.5644531
					c0.0009766-0.0673828-0.0668945-0.1123047-0.1572266-0.1191406C65.3981934,598,53.4064941,598.6005859,47.657959,598.5927734
					C41.9123535,598.6005859,29.9177246,598,29.2648926,598.0488281
					C29.1740723,598.0556641,29.1062012,598.1005859,29.1071777,598.1679688z M29.3366699,600.4169922
					c0.0976563,0.53125,0.2319336,1.0908203,0.4047852,1.6396484c0.0234375,0.0761719,0.0854492,0.0986328,0.1464844,0.0947266
					c0.0703125-0.0048828,17.7700195-1.0537109,17.7700195-1.0537109s17.6992188,1.0488281,17.769043,1.0537109
					c0.0620117,0.0039063,0.1230469-0.0185547,0.1469727-0.0947266c0.171875-0.5478516,0.3066406-1.1083984,0.4047852-1.6396484
					c0.0200195-0.109375-0.0585938-0.1630859-0.1748047-0.1621094c-0.1386719,0.0019531-14.269043,0.3925781-18.1459961,0.3925781
					c-3.8793945,0-18.0078125-0.390625-18.1464844-0.3925781C29.3947754,600.2539063,29.3156738,600.3085938,29.3366699,600.4169922
					z"/>
			</g>
			<g>
				<path d="M99.329834,589.4453125c-4.4716797,0-8.0961914,3.7714844-8.0961914,8.4228516
					c0,4.6503906,3.6245117,8.421875,8.0961914,8.421875s8.0996094-3.7714844,8.0996094-8.421875
					C107.4294434,593.2167969,103.8015137,589.4453125,99.329834,589.4453125z M99.342041,603.8232422
					c-1.9023438,0-4.8920898-1.4033203-4.8920898-5.9580078c0-4.5527344,2.9775391-6.0078125,4.8920898-6.0078125
					c1.9140625,0,4.8930664,1.4501953,4.8930664,6.0078125C104.2351074,602.4257813,101.2468262,603.8232422,99.342041,603.8232422z
					"/>
				<path d="M224.0114746,589.4453125c-4.4711914,0-8.0981445,3.7714844-8.0981445,8.4228516
					c0,4.6503906,3.6269531,8.421875,8.0981445,8.421875c4.4726563,0,8.1015625-3.7714844,8.1015625-8.421875
					C232.1130371,593.2167969,228.4836426,589.4453125,224.0114746,589.4453125z M224.026123,603.8232422
					c-1.9052734,0-4.8955078-1.4033203-4.8955078-5.9580078c0-4.5527344,2.9794922-6.0078125,4.8955078-6.0078125
					c1.9140625,0,4.8916016,1.4501953,4.8916016,6.0078125C228.9177246,602.4257813,225.9294434,603.8232422,224.026123,603.8232422
					z"/>
				<rect x="75.8513184" y="589.8349609" width="3.0507813" height="16.0654297"/>
				<rect x="128.0822754" y="589.8349609" width="3.0537109" height="16.0654297"/>
				<path d="M144.3635254,592.0429688h1.2768555l0.1459961-2.1416016c-0.6396484-0.0664063-1.1186523-0.1005859-1.7734375-0.1005859
					c-6.2128906,0-10.215332,3.2949219-10.215332,8.0644531c0,4.7705078,4.0024414,8.0644531,10.215332,8.0644531
					c0.6547852,0,1.1337891-0.0361328,1.7734375-0.1035156l-0.1459961-2.1464844h-1.2768555
					c-4.2446289,0-7.1923828-2.0400391-7.1923828-5.796875C137.1716309,594.125,140.0881348,592.0429688,144.3635254,592.0429688z"
					/>
				<path d="M121.5881348,599.4257813c0,0.03125-0.0146484,0.0439453-0.027832,0.0205078
					c-2.1303711-3.9423828-6.6967773-8.0664063-9.4760742-9.6113281h-2.1186523v16.0654297h2.8764648
					c0,0-0.1147461-12.3857422-0.1147461-12.4111328c0-0.0400391,0.0112305-0.0527344,0.0341797-0.0410156
					c3.4711914,2.3896484,7.0957031,7.0078125,9.0800781,12.4511719h2.5488281v-16.0644531h-2.9160156
					C121.4743652,589.8349609,121.5881348,599.4101563,121.5881348,599.4257813z"/>
				<path d="M210.5871582,599.4257813c0,0.03125-0.0180664,0.0439453-0.0268555,0.0205078
					c-2.1323242-3.9423828-6.6987305-8.0664063-9.480957-9.6113281h-2.1176758v16.0654297h2.8789063
					c0,0-0.1147461-12.3857422-0.1147461-12.4111328c0-0.0400391,0.012207-0.0527344,0.03125-0.0410156
					c3.4741211,2.3896484,7.1000977,7.0078125,9.0805664,12.4511719h2.5498047v-16.0644531h-2.9145508
					C210.4729004,589.8349609,210.5871582,599.4101563,210.5871582,599.4257813z"/>
				<rect x="192.2165527" y="589.8349609" width="3.0493164" height="16.0654297"/>
				<path d="M146.6887207,605.9003906h2.8950195c0,0,4.3271484-10.2011719,4.4902344-10.5419922
					c0.1972656,0.3496094,5.3422852,10.5419922,5.3422852,10.5419922h3.4345703l-8.7299805-16.5175781L146.6887207,605.9003906z"/>
				<path d="M259.3620605,589.3828125l-7.4296875,16.5175781h2.8989258c0,0,4.3266602-10.2011719,4.4892578-10.5419922
					c0.1962891,0.3496094,5.3388672,10.5419922,5.3388672,10.5419922h3.4365234L259.3620605,589.3828125z"/>
				<path d="M84.1047363,596.3652344c1.6987305-1.7548828,6.2836914-6.5302734,6.2836914-6.5302734h-3.6420898l-6.6816406,7.0332031
					c3.2104492,2.1113281,5.8891602,4.9863281,7.550293,9.03125h3.1933594
					C89.5412598,602.0996094,87.1105957,598.625,84.1047363,596.3652344z"/>
				<polygon points="237.7043457,589.8349609 234.6491699,589.8349609 234.6491699,605.9003906 243.9465332,605.9003906 
					243.9465332,603.5976563 237.7043457,603.5976563 				"/>
				<polygon points="253.7731934,589.8349609 242.5617676,589.8349609 242.5617676,592.1328125 246.6413574,592.1328125 
					246.6413574,605.9003906 249.6911621,605.9003906 249.6911621,592.1328125 253.7731934,592.1328125 				"/>
				<path d="M180.348877,597.3603516c-0.293457,0.5615234-0.7036133,1.8369141-0.980957,2.5869141
					c-0.0068359,0.0214844-0.0341797,0.0214844-0.0419922,0c-0.2700195-0.7333984-0.6835938-2.0166016-0.9707031-2.5683594
					c-1.3945313-2.9121094-3.737793-6.6699219-5.0576172-8.0644531c-0.7744141,1.4228516-3.8364258,13.8984375-4.4794922,16.5849609
					h3.0595703c0,0,2.3076172-10.6552734,2.3154297-10.6875c0.0068359-0.0361328,0.0263672-0.0449219,0.0439453-0.0175781
					c1.0039063,1.5429688,2.9648438,5.6484375,4.1420898,9.2792969h1.9389648
					c1.0869141-3.3896484,3.1347656-7.6738281,4.1420898-9.2158203c0.0146484-0.0253906,0.0283203-0.0097656,0.0341797,0.015625
					c0.0078125,0.0283203,2.3198242,10.6259766,2.3198242,10.6259766h3.0610352
					c-0.6445313-2.6865234-3.7041016-15.1621094-4.4794922-16.5849609
					C184.0480957,590.7089844,181.7561035,594.4667969,180.348877,597.3603516z"/>
			</g>
		</g>
		<g>
			<g>
				<line style="fill:none;" x1="20.7565918" y1="597.8671875" x2="28.7224121" y2="597.8671875"/>
				<line style="fill:none;" x1="275.5153809" y1="597.8671875" x2="267.548584" y2="597.8671875"/>
			</g>
			<g>
				<line style="fill:none;" x1="148.1262207" y1="581.4335938" x2="148.1262207" y2="573.46875"/>
				<line style="fill:none;" x1="148.1262207" y1="622.5371094" x2="148.1262207" y2="614.5761719"/>
			</g>
		</g>
	</g>
</g>
</svg>
